<mxfile host="app.diagrams.net" agent="Mozilla/5.0 (Windows NT 10.0; Win64; x64) AppleWebKit/537.36 (KHTML, like Gecko) Chrome/132.0.0.0 Safari/537.36 OPR/117.0.0.0" version="26.0.14">
  <diagram name="Página-1" id="SqxrHdy-vmil8ouuskka">
    <mxGraphModel dx="878" dy="435" grid="1" gridSize="10" guides="1" tooltips="1" connect="1" arrows="1" fold="1" page="1" pageScale="1" pageWidth="827" pageHeight="1169" math="0" shadow="0">
      <root>
        <mxCell id="0" />
        <mxCell id="1" parent="0" />
        <mxCell id="ZCtSPSgbI4ZUuqptyquI-7" value="" style="edgeStyle=orthogonalEdgeStyle;rounded=0;orthogonalLoop=1;jettySize=auto;html=1;" parent="1" source="6jQ01gzNGri82Y6rZKs0-5" target="6jQ01gzNGri82Y6rZKs0-8" edge="1">
          <mxGeometry relative="1" as="geometry">
            <Array as="points">
              <mxPoint x="420" y="115" />
              <mxPoint x="420" y="115" />
            </Array>
          </mxGeometry>
        </mxCell>
        <mxCell id="6jQ01gzNGri82Y6rZKs0-5" value="&lt;b&gt;Paso 1: Envía&amp;nbsp;documentos pendientes a la DIAN&lt;/b&gt;&lt;br&gt;Documentos que están en Estado = 0&lt;br&gt;Procesa bloques de 120 documentos en orden de llegada&lt;br&gt;Este bloque de documentos se envían en forma paralela." style="rounded=1;whiteSpace=wrap;html=1;" parent="1" vertex="1">
          <mxGeometry x="11" y="80" width="350" height="70" as="geometry" />
        </mxCell>
        <mxCell id="6jQ01gzNGri82Y6rZKs0-8" value="&lt;h1&gt;[dbo].[FeGetDocumentosPendientesSp]&lt;/h1&gt;&lt;div&gt;&lt;b style=&quot;background-color: initial; border-color: var(--border-color);&quot;&gt;Notas:&lt;/b&gt;&lt;br&gt;&lt;/div&gt;&lt;div&gt;&lt;b style=&quot;background-color: initial; border-color: var(--border-color);&quot;&gt;&lt;br&gt;&lt;/b&gt;&lt;/div&gt;&lt;div&gt;&lt;ul&gt;&lt;li&gt;El proceso de Batch quedo independiente, es un proceso unico encargado de enviar los documentos a la DIAN.&lt;/li&gt;&lt;li&gt;&lt;span style=&quot;background-color: initial;&quot;&gt;Solo consultar documentos que tengan encabezado y detalle en la base de datos FE_PRD&lt;/span&gt;&lt;br&gt;&lt;/li&gt;&lt;li&gt;Si un documento es Valido Dian = 0, antes de desmarcarlo, borrar cufe de encabezado SuperRicas, para que se cargue en la Base de datos Intermedia y se reprocese.&lt;/li&gt;&lt;li&gt;Hacer máximo 3 reintentos por documento.&lt;/li&gt;&lt;li&gt;&lt;font color=&quot;#ff3333&quot;&gt;Validar si para reenviar un documento de contingencia, se debe actualizar la fecha de emisión, dado que se consulta el estado pasadas 48 horas, y este punto puede dar error, debe reintentar&amp;nbsp;o valido dian = 0&lt;/font&gt;&lt;/li&gt;&lt;li&gt;Implementar un administrador donde se pueda ver el ultimo mensaje de error de los documentos, y se pueda corregir cierta informacion, por ejemplo si el Email esta mal formado, o el nombre de la distribuidora no coincide con el que esta en el RUT, que se corrija y se pueda desmarcar para enviar de nuevo a la DIAN.&lt;/li&gt;&lt;/ul&gt;&lt;/div&gt;&lt;p&gt;&lt;/p&gt;" style="text;html=1;strokeColor=none;fillColor=none;spacing=5;spacingTop=-20;whiteSpace=wrap;overflow=hidden;rounded=0;" parent="1" vertex="1">
          <mxGeometry x="440" y="20" width="530" height="360" as="geometry" />
        </mxCell>
        <mxCell id="6jQ01gzNGri82Y6rZKs0-10" value="JOB - Enacargado de pasar documentos sin Procesar a Fe_Prd&lt;br&gt;Se ejecuta cada 10 minutos" style="text;html=1;strokeColor=none;fillColor=none;align=center;verticalAlign=middle;whiteSpace=wrap;rounded=0;fontStyle=1" parent="1" vertex="1">
          <mxGeometry x="320" y="690" width="380" height="30" as="geometry" />
        </mxCell>
        <mxCell id="6jQ01gzNGri82Y6rZKs0-14" value="" style="edgeStyle=orthogonalEdgeStyle;rounded=0;orthogonalLoop=1;jettySize=auto;html=1;" parent="1" source="6jQ01gzNGri82Y6rZKs0-11" target="6jQ01gzNGri82Y6rZKs0-12" edge="1">
          <mxGeometry relative="1" as="geometry" />
        </mxCell>
        <mxCell id="6jQ01gzNGri82Y6rZKs0-11" value="Paso 1 Actualizar UUID de FeEstadoDocumento a SuperRicas PRD&lt;br&gt;&lt;b&gt;[dbo].[FeActualizarUuidEncabezadoSp]&lt;/b&gt;" style="rounded=1;whiteSpace=wrap;html=1;" parent="1" vertex="1">
          <mxGeometry x="240" y="760" width="480" height="60" as="geometry" />
        </mxCell>
        <mxCell id="6jQ01gzNGri82Y6rZKs0-15" value="" style="edgeStyle=orthogonalEdgeStyle;rounded=0;orthogonalLoop=1;jettySize=auto;html=1;" parent="1" source="6jQ01gzNGri82Y6rZKs0-12" target="6jQ01gzNGri82Y6rZKs0-13" edge="1">
          <mxGeometry relative="1" as="geometry" />
        </mxCell>
        <mxCell id="6jQ01gzNGri82Y6rZKs0-12" value="Paso 2 Cargar Documentos de SuperRicas PRD a FE_PRD&lt;br&gt;&lt;b&gt;[dbo].[FeCargarDatosDocumentosElectronicosSp]&lt;/b&gt;" style="rounded=1;whiteSpace=wrap;html=1;" parent="1" vertex="1">
          <mxGeometry x="240" y="850" width="480" height="60" as="geometry" />
        </mxCell>
        <mxCell id="6jQ01gzNGri82Y6rZKs0-13" value="Paso 3 Cargar documentos en FeEstadoDocumentos&lt;br&gt;&lt;b&gt;[dbo].[FeCargarDatosDocumentosElectronicosSp]&lt;/b&gt;" style="rounded=1;whiteSpace=wrap;html=1;" parent="1" vertex="1">
          <mxGeometry x="240" y="940" width="480" height="60" as="geometry" />
        </mxCell>
        <mxCell id="ZCtSPSgbI4ZUuqptyquI-1" value="Proceso de Batch&lt;br&gt;Se ejecuta cada 5 minutos" style="text;html=1;strokeColor=none;fillColor=none;align=center;verticalAlign=middle;whiteSpace=wrap;rounded=0;fontStyle=1" parent="1" vertex="1">
          <mxGeometry x="70" y="39" width="210" height="30" as="geometry" />
        </mxCell>
        <mxCell id="ZCtSPSgbI4ZUuqptyquI-3" value="" style="edgeStyle=orthogonalEdgeStyle;rounded=0;orthogonalLoop=1;jettySize=auto;html=1;" parent="1" source="ZCtSPSgbI4ZUuqptyquI-4" target="ZCtSPSgbI4ZUuqptyquI-5" edge="1">
          <mxGeometry relative="1" as="geometry">
            <Array as="points">
              <mxPoint x="1439" y="130" />
              <mxPoint x="1439" y="130" />
            </Array>
          </mxGeometry>
        </mxCell>
        <mxCell id="ZCtSPSgbI4ZUuqptyquI-4" value="&lt;b&gt;Paso 1: Consulta el estado de los documentos pendientes&lt;/b&gt;&lt;br&gt;114-Emitido Previamente&lt;br&gt;208-Factura de Contingencia pasadas 48 horas" style="rounded=1;whiteSpace=wrap;html=1;" parent="1" vertex="1">
          <mxGeometry x="1040" y="90" width="348" height="80" as="geometry" />
        </mxCell>
        <mxCell id="ZCtSPSgbI4ZUuqptyquI-5" value="&lt;h1&gt;[dbo].[FeGetDocsValidarEstadoSp]&lt;/h1&gt;&lt;p&gt;&lt;/p&gt;&lt;ul&gt;&lt;li&gt;Desmarca documentos de acuerdo a cierto tipo de errores, ver SP para mas detalle.&lt;/li&gt;&lt;li style=&quot;border-color: var(--border-color);&quot;&gt;Cambia a Estado = 0, documentos que están en Estado = 6, que no tiene credenciales de acceso y cuyas credenciales fueron cargadas posteriormente.&lt;/li&gt;&lt;li&gt;Se consulta el estado de los documentos a la &lt;b&gt;DIAN&lt;/b&gt; por bloques de 120, y en orden de llegada&lt;/li&gt;&lt;/ul&gt;&lt;div&gt;Se definieron los siguientes escenarios:&lt;/div&gt;&lt;div&gt;&lt;ol&gt;&lt;li style=&quot;border-color: var(--border-color);&quot;&gt;Si al consultar el estado de un documento la respuesta&amp;nbsp;es &lt;b&gt;Correcta&lt;/b&gt;&amp;nbsp;y es&amp;nbsp;&lt;b style=&quot;border-color: var(--border-color);&quot;&gt;ValidoDian&lt;/b&gt;&amp;nbsp;= True, se valida si el estado actual del documento es &lt;b&gt;Emitido Previamente&lt;/b&gt;, en este caso, se obtiene la información del QR y se compara con la información de la Base de datos, los datos que se comparan son: &lt;b&gt;Fecha sin hora&lt;/b&gt;, &lt;b&gt;Total&lt;/b&gt;, &lt;b&gt;Subtotal&lt;/b&gt; y &lt;b&gt;Total Iva&lt;/b&gt;, si todos son iguales se pasa a Estado = 1, de lo contrario de pasa a &lt;b&gt;Estado = 4 &lt;/b&gt;y&amp;nbsp;&lt;b&gt;CodigoRespuesta = 1000&lt;/b&gt;.&lt;/li&gt;&lt;li style=&quot;border-color: var(--border-color);&quot;&gt;Si al consultar el estado de un documento la respuesta es&amp;nbsp;&lt;b style=&quot;border-color: var(--border-color);&quot;&gt;Correcta&lt;/b&gt;&amp;nbsp;y es&amp;nbsp;&lt;b style=&quot;border-color: var(--border-color);&quot;&gt;ValidoDian&lt;/b&gt;&amp;nbsp;= True, se pasa a &lt;b&gt;Estado = 1&lt;/b&gt;&lt;/li&gt;&lt;li style=&quot;border-color: var(--border-color);&quot;&gt;Si al consultar el estado de un documento la respuesta es&amp;nbsp;&lt;b style=&quot;border-color: var(--border-color);&quot;&gt;Error, &lt;/b&gt;&lt;span style=&quot;border-color: var(--border-color);&quot;&gt;se pasa &lt;b&gt;Estado = 4&lt;/b&gt; y se guarda el Código y Mensaje de error devuelto por el servicio de consulta.&lt;/span&gt;&lt;/li&gt;&lt;li style=&quot;border-color: var(--border-color);&quot;&gt;Si al consultar el estado de un documento la respuesta es &lt;b&gt;Debe Reintentar&lt;/b&gt;, se desmarca el documento para ser reenviado a la DIAN&lt;/li&gt;&lt;/ol&gt;&lt;/div&gt;&lt;div&gt;&lt;b&gt;Notas&lt;/b&gt;&lt;/div&gt;&lt;div&gt;&lt;ul&gt;&lt;li&gt;El proceso de consultar el estado de los documentos se independizo del proceso de &lt;b&gt;Batch&lt;/b&gt;.&lt;/li&gt;&lt;li&gt;Se hacen máximo tres intentos por documento, para reenviarlo a la DIAN.&lt;/li&gt;&lt;/ul&gt;&lt;/div&gt;&lt;p&gt;&lt;/p&gt;" style="text;html=1;strokeColor=none;fillColor=none;spacing=5;spacingTop=-20;whiteSpace=wrap;overflow=hidden;rounded=0;" parent="1" vertex="1">
          <mxGeometry x="1459" y="20" width="570" height="540" as="geometry" />
        </mxCell>
        <mxCell id="ZCtSPSgbI4ZUuqptyquI-6" value="Job Nuevo - [Name]&amp;nbsp;&lt;br&gt;Se ejecuta cada 30 minutos" style="text;html=1;strokeColor=none;fillColor=none;align=center;verticalAlign=middle;whiteSpace=wrap;rounded=0;fontStyle=1" parent="1" vertex="1">
          <mxGeometry x="1099" y="40" width="210" height="30" as="geometry" />
        </mxCell>
      </root>
    </mxGraphModel>
  </diagram>
</mxfile>
